<svg xmlns="http://www.w3.org/2000/svg" width="261.986" height="188.864" viewBox="0 0 261.986 188.864">
  <g id="Group_232" data-name="Group 232" transform="translate(-4830.002 -354.746)">
    <g id="Group_231" data-name="Group 231">
      <g id="Group_226" data-name="Group 226">
        <g id="Group_225" data-name="Group 225">
          <path id="Path_346" data-name="Path 346" d="M5046.127,477.373h-169.9a11.938,11.938,0,0,1-11.923-11.926V366.66a11.931,11.931,0,0,1,11.923-11.914h169.9a11.929,11.929,0,0,1,11.922,11.914v98.787A11.937,11.937,0,0,1,5046.127,477.373Zm-169.9-118.718a8.018,8.018,0,0,0-8.014,8.005v98.787a8.023,8.023,0,0,0,8.014,8.017h169.9a8.026,8.026,0,0,0,8.014-8.017V366.66a8.021,8.021,0,0,0-8.014-8.005Z"/>
        </g>
        <path id="Path_347" data-name="Path 347" d="M5047.194,467H4875.161a.978.978,0,0,1-.977-.977V366.093a.978.978,0,0,1,.977-.977h172.033a.978.978,0,0,1,.978.977v99.933A.983.983,0,0,1,5047.194,467Zm-171.055-1.955h170.078V367.071H4876.139v97.977Z"/>
      </g>
      <g id="Group_227" data-name="Group 227">
        <path id="Path_348" data-name="Path 348" d="M5079.607,535.069H4842.4c-6.294,0-10.66-1.5-11.977-4.131a4.044,4.044,0,0,1,.555-4.421l34.613-46.2c2.608-3.483,9.226-6.212,15.062-6.212h160.685c5.84,0,12.458,2.729,15.065,6.212l34.61,46.188a4.057,4.057,0,0,1,.567,4.421C5089.712,534.663,5082.582,535.069,5079.607,535.069ZM4880.65,478.018c-4.582,0-10.046,2.127-11.934,4.644l-34.61,46.188a.974.974,0,0,0-.192.36c.176.465,2.619,1.946,8.483,1.946h237.21c5.852,0,8.295-1.473,8.479-1.985h0c-.012,0-.055-.121-.2-.321l-34.61-46.188c-1.88-2.521-7.349-4.644-11.934-4.644Z"/>
      </g>
      <path id="Path_349" data-name="Path 349" d="M4983.779,453.845h-45.222a.977.977,0,1,1,0-1.954h45.222a.977.977,0,1,1,0,1.954Z"/>
      <g id="Group_228" data-name="Group 228">
        <path id="Path_350" data-name="Path 350" d="M4960.8,428.128a.978.978,0,0,1,.977.978v16.921a.977.977,0,1,1-1.955,0V429.106A.978.978,0,0,1,4960.8,428.128Z"/>
        <path id="Path_351" data-name="Path 351" d="M4960.8,428.128a.973.973,0,0,1,.692.286l5.624,5.633a.978.978,0,0,1-1.383,1.383l-4.937-4.945-4.953,4.945a.978.978,0,0,1-1.384-1.383l5.645-5.633A1,1,0,0,1,4960.8,428.128Z"/>
      </g>
      <path id="Path_352" data-name="Path 352" d="M5068.178,514.371h-213.14a.975.975,0,0,1-.805-1.528l19.439-28.535a.979.979,0,0,1,.809-.426h174.335a.984.984,0,0,1,.81.426l19.368,28.535a.973.973,0,0,1,.055,1.009A.993.993,0,0,1,5068.178,514.371Zm-211.3-1.954h209.449l-18.043-26.581h-173.3Z"/>
      <g id="Group_229" data-name="Group 229">
        <path id="Path_353" data-name="Path 353" d="M4975.32,425.763a1.951,1.951,0,0,1-1.477-.676c-.172-.191-4.456-4.913-13.04-4.913s-12.873,4.722-13.048,4.921a1.953,1.953,0,0,1-2.948-2.564c.223-.254,5.539-6.266,16-6.266s15.772,6.008,15.995,6.266a1.953,1.953,0,0,1-1.482,3.232Z"/>
        <path id="Path_354" data-name="Path 354" d="M4981.372,418.5a1.952,1.952,0,0,1-1.462-.657c-.161-.18-6.521-6.946-19.107-6.946s-18.951,6.766-19.115,6.95a1.954,1.954,0,0,1-2.92-2.6c.3-.336,7.6-8.263,22.035-8.263s21.733,7.923,22.03,8.263a1.953,1.953,0,0,1-1.461,3.249Z"/>
        <path id="Path_355" data-name="Path 355" d="M4987.423,411.238a1.96,1.96,0,0,1-1.447-.641c-.148-.161-8.584-8.975-25.169-8.975s-25.029,8.814-25.178,8.979a1.954,1.954,0,0,1-2.893-2.627c.383-.422,9.671-10.261,28.074-10.261s27.684,9.843,28.071,10.261a1.958,1.958,0,0,1-.137,2.76A1.978,1.978,0,0,1,4987.423,411.238Z"/>
        <path id="Path_356" data-name="Path 356" d="M4993.474,403.979a1.951,1.951,0,0,1-1.431-.626c-.137-.144-10.656-11.007-31.236-11.007s-31.108,10.867-31.245,11.011a1.954,1.954,0,0,1-2.865-2.658c.469-.5,11.735-12.262,34.113-12.262s33.633,11.762,34.1,12.262a1.95,1.95,0,0,1-.1,2.76A1.973,1.973,0,0,1,4993.474,403.979Z"/>
        <path id="Path_357" data-name="Path 357" d="M4999.521,396.72a1.955,1.955,0,0,1-1.419-.606c-.121-.129-12.72-13.04-37.3-13.04s-37.186,12.911-37.311,13.04a1.955,1.955,0,0,1-2.838-2.689c.551-.583,13.794-14.26,40.149-14.26s39.589,13.681,40.141,14.264a1.951,1.951,0,0,1-1.423,3.291Z"/>
      </g>
      <g id="Group_230" data-name="Group 230">
        <path id="Path_358" data-name="Path 358" d="M5079.607,543.61H4842.4c-3.163,0-8.835-.41-11.289-3.139a4,4,0,0,1-1.075-3.154l-.012-7.834a3.366,3.366,0,0,1,0-.57v-.106a2.037,2.037,0,0,1,3.487-1.235,1.964,1.964,0,0,1,.422,1.579v.071c.254.512,2.709,1.938,8.467,1.938h237.21c5.614,0,8.084-1.36,8.436-1.915v-.192a1.946,1.946,0,0,1,.418-1.473,2.041,2.041,0,0,1,3.491,1.161,3.7,3.7,0,0,1,0,.93v7.873a3.774,3.774,0,0,1-1.052,2.908C5088.469,543.2,5082.781,543.61,5079.607,543.61Zm-245.677-9.846v3.772c.156.7,2.568,2.169,8.467,2.169h237.21c5.832,0,8.272-1.458,8.455-1.962l-.007-3.979a23.185,23.185,0,0,1-8.448,1.3H4842.4A23.3,23.3,0,0,1,4833.93,533.764Z"/>
      </g>
    </g>
  </g>
</svg>
